<mxfile host="app.diagrams.net" modified="2023-10-05T06:24:20.781Z" agent="Mozilla/5.0 (Windows NT 10.0; Win64; x64) AppleWebKit/537.36 (KHTML, like Gecko) Chrome/117.0.0.0 Safari/537.36" version="22.0.2" etag="u0Prtb7LmIZIArN8cT53" type="github">
  <diagram name="Page-1" id="aHLGJV4xZVNKK8UL9nQ6">
    <mxGraphModel>
      <root>
        <mxCell id="0" />
        <mxCell id="1" parent="0" />
      </root>
    </mxGraphModel>
  </diagram>
</mxfile>
